<?xml version="1.0" encoding="utf-8"?>
<!-- Generator: Adobe Illustrator 26.0.1, SVG Export Plug-In . SVG Version: 6.00 Build 0)  -->
<svg version="1.1" id="Layer_1" xmlns="http://www.w3.org/2000/svg" xmlns:xlink="http://www.w3.org/1999/xlink" x="0px" y="0px"
	 viewBox="0 0 272 272" style="enable-background:new 0 0 272 272;" xml:space="preserve">
<style type="text/css">
	.st0{fill:#593E0E;}
</style>
<path class="st0" d="M264,72h-34.2c-0.8-1.6-1.6-3.2-2.5-4.7c-15.6-26.7-49.9-35.8-76.6-20.2c-23.7,13.8-33.9,42.7-24.1,68.4
	L23.8,218.2l0,0L8,234.1l11.2,11.2l29.3-7.8c26.3,15.7,57.3,21.5,87.4,16.4V272h8v-19.7c11.2-2.6,21.9-6.8,32-12.3l0,0v32h8v-36.8
	l0,0c47.2-30.5,69-88.2,53.8-142.2L264,72z M199.3,212.6c-15.3,15.3-34.4,26.2-55.4,31.5c-2.6,0.7-5.3,1.2-8,1.7
	c-28.7,5.2-58.3-0.2-83.3-15.2l-2.9-1.7l-28.1,7.5l-2.3-2.3l15.8-15.8l0,0l100.8-100.8l-1.8-4.8c-9.5-24.8,2.9-52.5,27.7-62
	c22-8.4,46.9,0.3,58.7,20.7c0.8,1.2,1.5,2.6,2.1,4l2.2,4.6h16.4l-12.6,10.1l1.4,5.1C241.7,137,230,181.9,199.3,212.6z"/>
<path class="st0" d="M188.1,68c-6.6,0-12,5.4-12,12s5.4,12,12,12s12-5.4,12-12S194.8,68,188.1,68z M188.1,84c-2.2,0-4-1.8-4-4
	s1.8-4,4-4s4,1.8,4,4S190.4,84,188.1,84z"/>
</svg>
